<?xml version="1.0" encoding="utf-8"?>
<!-- Generator: Adobe Illustrator 16.0.0, SVG Export Plug-In . SVG Version: 6.00 Build 0)  -->
<!DOCTYPE svg PUBLIC "-//W3C//DTD SVG 1.1//EN" "http://www.w3.org/Graphics/SVG/1.1/DTD/svg11.dtd">
<svg version="1.1" id="Layer_1" xmlns="http://www.w3.org/2000/svg" xmlns:xlink="http://www.w3.org/1999/xlink" x="0px" y="0px"
	 width="1000px" height="700px" viewBox="0 0 1000 700" enable-background="new 0 0 1000 700" xml:space="preserve">
	 <style>
		 svg{
		 	/*background: white;*/
		 }
	 	@-webkit-keyframes fadeIn { from { opacity:0; } to { opacity:1; } }
		@-moz-keyframes fadeIn { from { opacity:0; } to { opacity:1; } }
		@keyframes fadeIn { from { opacity:0; } to { opacity:1; } }
	 	.fadein {
	 		opacity:0;  /* make things invisible upon start */
			-webkit-animation:fadeIn ease-in 1;  /* call our keyframe named fadeIn, use animattion ease-in and repeat it only 1 time */
			-moz-animation:fadeIn ease-in 1;
			animation:fadeIn ease-in 1;

			-webkit-animation-fill-mode:forwards;  /* this makes sure that after animation is done we remain at the last keyframe value (opacity: 1)*/
			-moz-animation-fill-mode:forwards;
			animation-fill-mode:forwards;

			-webkit-animation-duration:2s;
			-moz-animation-duration:2s;
			animation-duration:2s;
	 	}
	 	.fadein.first {
			-webkit-animation-delay: 0.5s;
			oz-animation-delay: 0.5s;
			imation-delay: 0.5s;
		}

		.fadein.second {
			-webkit-animation-delay: 1s;
			oz-animationon-delay: 1s;
			nimation-delay: 1s;
		}

		.fadein.third {
			-webkit-animation-delay: 1.5s;
			-moz-animation-delay: 1.5s;
			animation-delay: 1.5s;
		}

		.fadein.fourth {
			-webkit-animation-delay: 2s;
			-moz-animation-delay: 2s;
			animation-delay: 2s;
		}
	 </style>
<g class="fadein first">
	<path fill="#FFFFFF" stroke="#58595B" stroke-width="8" stroke-miterlimit="10" d="M742.867,413.48
		c0,10.058-8.153,18.213-18.213,18.213H240.005c-10.06,0-18.214-8.155-18.214-18.213V100.928c0-10.059,8.155-18.214,18.214-18.214
		h484.649c10.06,0,18.213,8.155,18.213,18.214V413.48z"/>
	<rect x="249.063" y="274.457" fill="#F37E84" width="466.142" height="127.662"/>

		<rect x="427.355" y="434.084" fill="#58595B" stroke="#58595B" stroke-width="8" stroke-miterlimit="10" width="109.949" height="71.707"/>
	<rect x="588.433" y="106.055" fill="#4CC8EE" width="126.772" height="68.504"/>

		<line fill="#394DA1" stroke="#3D58A7" stroke-width="8" stroke-miterlimit="10" x1="249.063" y1="112.055" x2="582.134" y2="112.055"/>

		<line fill="none" stroke="#BCBEC0" stroke-width="8" stroke-miterlimit="10" x1="249.063" y1="123.378" x2="582.134" y2="123.378"/>

		<line fill="none" stroke="#BCBEC0" stroke-width="8" stroke-miterlimit="10" x1="249.063" y1="135.362" x2="582.134" y2="135.362"/>

		<line fill="none" stroke="#BCBEC0" stroke-width="8" stroke-miterlimit="10" x1="249.063" y1="146.953" x2="582.134" y2="146.953"/>

		<line fill="none" stroke="#BCBEC0" stroke-width="8" stroke-miterlimit="10" x1="249.063" y1="158.275" x2="582.134" y2="158.275"/>
	<line fill="none" stroke="#BCBEC0" stroke-width="8" stroke-miterlimit="10" x1="249.063" y1="170.26" x2="582.134" y2="170.26"/>

		<line fill="none" stroke="#BCBEC0" stroke-width="8" stroke-miterlimit="10" x1="249.063" y1="182.945" x2="715.205" y2="182.945"/>
	<line fill="none" stroke="#BCBEC0" stroke-width="8" stroke-miterlimit="10" x1="249.063" y1="194.48" x2="715.205" y2="194.48"/>

		<line fill="none" stroke="#BCBEC0" stroke-width="8" stroke-miterlimit="10" x1="249.307" y1="206.394" x2="715.449" y2="206.394"/>

		<line fill="none" stroke="#BCBEC0" stroke-width="8" stroke-miterlimit="10" x1="249.306" y1="217.929" x2="715.449" y2="217.929"/>

		<line fill="none" stroke="#BCBEC0" stroke-width="8" stroke-miterlimit="10" x1="249.185" y1="229.551" x2="715.327" y2="229.551"/>

		<line fill="none" stroke="#BCBEC0" stroke-width="8" stroke-miterlimit="10" x1="249.185" y1="241.087" x2="715.327" y2="241.087"/>
	<line fill="none" stroke="#BCBEC0" stroke-width="8" stroke-miterlimit="10" x1="249.429" y1="253" x2="715.571" y2="253"/>

		<line fill="none" stroke="#BCBEC0" stroke-width="8" stroke-miterlimit="10" x1="249.428" y1="264.536" x2="715.571" y2="264.536"/>
		<rect x="399.315" y="505.791" fill="#58595B" width="166.124" height="14.342"/>
</g>

<g class="fadein second">
	<path fill="#58595B" d="M994.669,562.311c0,20.74-5.595,37.549-12.497,37.549H624.219c-6.9,0-12.498-16.809-12.498-37.549"/>
	<path fill="#FFFFFF" d="M836.441,562.311c0,6.753-5.474,12.223-12.226,12.223h-42.042c-6.752,0-12.223-5.47-12.223-12.223l0,0
		c0-6.749,5.471-12.221,12.223-12.221h42.042C830.968,550.09,836.441,555.562,836.441,562.311L836.441,562.311z"/>
	<path fill="#FFFFFF" stroke="#58595B" stroke-width="8" stroke-miterlimit="10" d="M975.394,524.291
		c0,12.099-9.81,21.913-21.91,21.913H651.849c-12.102,0-21.911-9.814-21.911-21.913V364.442c0-12.1,9.81-21.91,21.911-21.91h301.635
		c12.101,0,21.91,9.811,21.91,21.91V524.291z"/>
	<rect x="648.758" y="455.478" fill="#F37E84" width="309.94" height="76.354"/>
	<rect x="874.406" y="354.76" fill="#4CC8EE" width="84.292" height="40.971"/>

		<line fill="#394DA1" stroke="#3D58A7" stroke-width="4" stroke-miterlimit="10" x1="648.758" y1="358.348" x2="870.218" y2="358.348"/>

		<line fill="none" stroke="#BCBEC0" stroke-width="4" stroke-miterlimit="10" x1="648.758" y1="365.119" x2="870.218" y2="365.119"/>

		<line fill="none" stroke="#BCBEC0" stroke-width="4" stroke-miterlimit="10" x1="648.758" y1="372.287" x2="870.218" y2="372.287"/>
	<line fill="none" stroke="#BCBEC0" stroke-width="4" stroke-miterlimit="10" x1="648.758" y1="379.22" x2="870.218" y2="379.22"/>

		<line fill="none" stroke="#BCBEC0" stroke-width="4" stroke-miterlimit="10" x1="648.758" y1="385.992" x2="870.218" y2="385.992"/>

		<line fill="none" stroke="#BCBEC0" stroke-width="4" stroke-miterlimit="10" x1="648.758" y1="393.159" x2="870.218" y2="393.159"/>

		<line fill="none" stroke="#BCBEC0" stroke-width="4" stroke-miterlimit="10" x1="648.758" y1="400.746" x2="958.698" y2="400.746"/>

		<line fill="none" stroke="#BCBEC0" stroke-width="4" stroke-miterlimit="10" x1="648.758" y1="407.646" x2="958.698" y2="407.646"/>
	<line fill="none" stroke="#BCBEC0" stroke-width="4" stroke-miterlimit="10" x1="648.921" y1="414.771" x2="958.86" y2="414.771"/>
	<line fill="none" stroke="#BCBEC0" stroke-width="4" stroke-miterlimit="10" x1="648.921" y1="421.669" x2="958.86" y2="421.669"/>

		<line fill="none" stroke="#BCBEC0" stroke-width="4" stroke-miterlimit="10" x1="648.839" y1="428.621" x2="958.779" y2="428.621"/>

		<line fill="none" stroke="#BCBEC0" stroke-width="4" stroke-miterlimit="10" x1="648.839" y1="435.521" x2="958.779" y2="435.521"/>

		<line fill="none" stroke="#BCBEC0" stroke-width="4" stroke-miterlimit="10" x1="649.001" y1="442.646" x2="958.941" y2="442.646"/>

		<line fill="none" stroke="#BCBEC0" stroke-width="4" stroke-miterlimit="10" x1="649.001" y1="449.545" x2="958.941" y2="449.545"/>
</g>
<g class="fadein third">
	<path fill="#FFFFFF" stroke="#58595B" stroke-width="8" stroke-miterlimit="10" d="M325.423,514.198
		c0,11.391-7.54,20.633-16.842,20.633H76.71c-9.301,0-16.842-9.242-16.842-20.633V363.667c0-11.395,7.541-20.633,16.842-20.633
		h231.871c9.302,0,16.842,9.238,16.842,20.633V514.198z"/>

		<rect x="65.697" y="349.909" fill="#58595B" stroke="#58595B" stroke-width="8" stroke-miterlimit="10" width="9.801" height="177.597"/>

		<rect x="309.194" y="348.841" fill="#58595B" stroke="#58595B" stroke-width="8" stroke-miterlimit="10" width="9.801" height="179.52"/>
	<rect x="87.191" y="449.196" fill="#F37E84" width="209.384" height="72.937"/>
	<rect x="239.63" y="352.984" fill="#4CC8EE" width="56.945" height="39.139"/>

		<line fill="#394DA1" stroke="#3D58A7" stroke-width="4" stroke-miterlimit="10" x1="87.191" y1="356.413" x2="236.801" y2="356.413"/>
	<line fill="none" stroke="#BCBEC0" stroke-width="4" stroke-miterlimit="10" x1="87.191" y1="362.881" x2="236.801" y2="362.881"/>
	<line fill="none" stroke="#BCBEC0" stroke-width="4" stroke-miterlimit="10" x1="87.191" y1="369.729" x2="236.801" y2="369.729"/>
	<line fill="none" stroke="#BCBEC0" stroke-width="4" stroke-miterlimit="10" x1="87.191" y1="376.351" x2="236.801" y2="376.351"/>
	<line fill="none" stroke="#BCBEC0" stroke-width="4" stroke-miterlimit="10" x1="87.191" y1="382.82" x2="236.801" y2="382.82"/>
	<line fill="none" stroke="#BCBEC0" stroke-width="4" stroke-miterlimit="10" x1="87.191" y1="389.666" x2="236.801" y2="389.666"/>
	<line fill="none" stroke="#BCBEC0" stroke-width="4" stroke-miterlimit="10" x1="87.191" y1="396.914" x2="296.575" y2="396.914"/>
	<line fill="none" stroke="#BCBEC0" stroke-width="4" stroke-miterlimit="10" x1="87.191" y1="403.505" x2="296.575" y2="403.505"/>
	<line fill="none" stroke="#BCBEC0" stroke-width="4" stroke-miterlimit="10" x1="87.301" y1="410.311" x2="296.685" y2="410.311"/>
	<line fill="none" stroke="#BCBEC0" stroke-width="4" stroke-miterlimit="10" x1="87.301" y1="416.9" x2="296.685" y2="416.9"/>
	<line fill="none" stroke="#BCBEC0" stroke-width="4" stroke-miterlimit="10" x1="87.246" y1="423.542" x2="296.63" y2="423.542"/>
	<line fill="none" stroke="#BCBEC0" stroke-width="4" stroke-miterlimit="10" x1="87.246" y1="430.132" x2="296.63" y2="430.132"/>
	<line fill="none" stroke="#BCBEC0" stroke-width="4" stroke-miterlimit="10" x1="87.355" y1="436.938" x2="296.739" y2="436.938"/>
	<line fill="none" stroke="#BCBEC0" stroke-width="4" stroke-miterlimit="10" x1="87.355" y1="443.529" x2="296.739" y2="443.529"/>
</g>
<g class="fadein fourth">
	<path fill="#FFFFFF" stroke="#58595B" stroke-width="8" stroke-miterlimit="10" d="M105.759,582.655
		c0,7.947-5.375,14.386-12.007,14.386H24.009c-6.631,0-12.008-6.438-12.008-14.386V434.917c0-7.944,5.376-14.384,12.008-14.384
		h69.743c6.632,0,12.007,6.439,12.007,14.384V582.655z"/>
	<rect x="14.558" y="423.837" fill="#58595B" width="88.613" height="14.63"/>
	<rect x="14.266" y="575.846" fill="#58595B" width="90.722" height="18.92"/>
	<path fill="#FFFFFF" d="M80.547,428.261c0-1.089-2.734-1.972-6.106-1.972H42.295c-3.372,0-6.105,0.883-6.105,1.972l0,0
		c0,1.092,2.733,1.974,6.105,1.974h32.146C77.813,430.234,80.547,429.353,80.547,428.261L80.547,428.261z"/>
	<circle fill="#FFFFFF" cx="58.411" cy="588.38" r="8.547"/>
	<rect x="21.411" y="528.133" fill="#F37E84" width="74.747" height="40.04"/>
	<rect x="69.597" y="443.387" fill="#4CC8EE" width="26.561" height="28.874"/>

		<line fill="#394DA1" stroke="#3D58A7" stroke-width="4" stroke-miterlimit="10" x1="21.411" y1="445.916" x2="65.958" y2="445.916"/>
	<line fill="none" stroke="#BCBEC0" stroke-width="4" stroke-miterlimit="10" x1="21.411" y1="450.688" x2="65.958" y2="450.688"/>
	<line fill="none" stroke="#BCBEC0" stroke-width="4" stroke-miterlimit="10" x1="21.411" y1="455.739" x2="65.958" y2="455.739"/>
	<line fill="none" stroke="#BCBEC0" stroke-width="4" stroke-miterlimit="10" x1="21.411" y1="460.625" x2="65.958" y2="460.625"/>
	<line fill="none" stroke="#BCBEC0" stroke-width="4" stroke-miterlimit="10" x1="21.411" y1="465.397" x2="65.958" y2="465.397"/>
	<line fill="none" stroke="#BCBEC0" stroke-width="4" stroke-miterlimit="10" x1="21.411" y1="470.448" x2="65.958" y2="470.448"/>
	<line fill="none" stroke="#BCBEC0" stroke-width="4" stroke-miterlimit="10" x1="21.411" y1="476.795" x2="96.158" y2="476.795"/>
	<line fill="none" stroke="#BCBEC0" stroke-width="4" stroke-miterlimit="10" x1="21.411" y1="482.657" x2="96.158" y2="482.657"/>
	<line fill="none" stroke="#BCBEC0" stroke-width="4" stroke-miterlimit="10" x1="21.451" y1="488.678" x2="96.197" y2="488.678"/>
	<line fill="none" stroke="#BCBEC0" stroke-width="4" stroke-miterlimit="10" x1="21.431" y1="494.439" x2="96.177" y2="494.439"/>
	<line fill="none" stroke="#BCBEC0" stroke-width="4" stroke-miterlimit="10" x1="21.431" y1="500.301" x2="96.177" y2="500.301"/>
	<line fill="none" stroke="#BCBEC0" stroke-width="4" stroke-miterlimit="10" x1="21.47" y1="505.322" x2="96.216" y2="505.322"/>
	<line fill="none" stroke="#BCBEC0" stroke-width="4" stroke-miterlimit="10" x1="21.47" y1="511.185" x2="96.216" y2="511.185"/>
	<line fill="none" stroke="#BCBEC0" stroke-width="4" stroke-miterlimit="10" x1="21.996" y1="516.1" x2="96.742" y2="516.1"/>
	<line fill="none" stroke="#BCBEC0" stroke-width="4" stroke-miterlimit="10" x1="21.996" y1="521.962" x2="96.742" y2="521.962"/>
</g>
</svg>
